<svg xmlns="http://www.w3.org/2000/svg" xmlns:xlink="http://www.w3.org/1999/xlink" viewBox="0 0 200.76 80.32" xmlns:v="https://vecta.io/nano"><linearGradient id="A" gradientUnits="userSpaceOnUse" x1="95.18" y1="19.13" x2="95.18" y2="61.37"><stop offset=".115" stop-color="#99d13e"/><stop offset="1" stop-color="#6bc544"/></linearGradient><path d="M156.86 61.37H33.5a21.13 21.13 0 0 1-21.12-21.12h0A21.13 21.13 0 0 1 33.5 19.13h123.36a21.13 21.13 0 0 1 21.12 21.12h0a21.13 21.13 0 0 1-21.12 21.12z" fill="url(#A)"/><g fill="#fff"><path d="M35.26 41.04h-1.65v3.28h-1.48v-8.53h3c.98 0 1.74.22 2.28.66s.8 1.08.8 1.92c0 .57-.14 1.05-.41 1.43-.28.39-.66.68-1.15.89l1.92 3.55v.08h-1.59l-1.72-3.28zm-1.65-1.2h1.52c.5 0 .89-.13 1.17-.38s.42-.6.42-1.03c0-.46-.13-.81-.39-1.06s-.65-.38-1.16-.39h-1.56v2.86zm10.99.67h-3.5v2.63h4.1v1.18h-5.58v-8.53h5.54v1.2H41.1v2.36h3.5v1.16zm8.31 1.03c-.09.91-.42 1.62-1.01 2.13s-1.37.76-2.34.76c-.68 0-1.28-.16-1.8-.48a3.15 3.15 0 0 1-1.2-1.37c-.28-.59-.43-1.28-.44-2.07v-.8c0-.8.14-1.51.43-2.13s.69-1.09 1.23-1.42 1.15-.5 1.85-.5c.94 0 1.7.25 2.27.76s.91 1.23 1 2.17h-1.48c-.07-.61-.25-1.06-.54-1.33s-.71-.41-1.26-.41c-.64 0-1.14.24-1.49.71s-.52 1.16-.53 2.07v.76c0 .92.17 1.63.5 2.11.33.49.81.73 1.45.73.58 0 1.02-.13 1.31-.39s.48-.7.56-1.31h1.49zm8.13-1.26c0 .84-.14 1.57-.43 2.2s-.7 1.12-1.24 1.45-1.16.51-1.85.51-1.31-.17-1.85-.51-.96-.82-1.25-1.44-.44-1.35-.45-2.16v-.48c0-.83.15-1.57.44-2.2s.71-1.12 1.25-1.46 1.15-.51 1.85-.51 1.31.17 1.85.5.95.81 1.25 1.44.44 1.36.45 2.19v.47zm-1.48-.45c0-.95-.18-1.67-.54-2.17s-.86-.76-1.52-.76c-.64 0-1.14.25-1.5.75s-.55 1.21-.55 2.13v.49c0 .94.18 1.66.55 2.17a1.77 1.77 0 0 0 1.52.77c.66 0 1.16-.25 1.51-.75s.53-1.23.53-2.19v-.44zm4.88-4.04l2.46 6.54 2.46-6.54h1.92v8.53H69.8v-2.81l.15-3.76-2.52 6.57h-1.06l-2.51-6.57.14 3.76v2.81h-1.48v-8.53h1.92zm10.51 0l2.46 6.54 2.46-6.54h1.92v8.53H80.3v-2.81l.15-3.76-2.52 6.57h-1.06l-2.51-6.57.15 3.76v2.81h-1.48v-8.53h1.92zm13.57 4.72h-3.5v2.63h4.1v1.18h-5.58v-8.53h5.54v1.2h-4.05v2.36h3.5v1.16zm8.56 3.81H95.6l-3.8-6.05v6.05h-1.48v-8.53h1.48l3.81 6.08v-6.08h1.47v8.53z"/><use xlink:href="#F"/><path d="M111.66 40.51h-3.5v2.63h4.1v1.18h-5.58v-8.53h5.54v1.2h-4.05v2.36h3.5v1.16z"/><use xlink:href="#F" x="14.62"/></g><linearGradient id="B" gradientUnits="userSpaceOnUse" x1="128.54" y1="39.686" x2="192.86" y2="39.686"><stop offset=".115" stop-color="#99d13e"/><stop offset="1" stop-color="#6bc544"/></linearGradient><circle cx="160.7" cy="39.69" r="32.16" fill="url(#B)"/><linearGradient id="C" gradientUnits="userSpaceOnUse" x1="137.959" y1="17.509" x2="183.441" y2="62.99"><stop offset=".115" stop-color="#99d13e"/><stop offset="1" stop-color="#6bc544"/></linearGradient><circle cx="160.7" cy="40.25" r="32.16" fill="url(#C)"/><circle cx="160.7" cy="40.25" r="25.2" fill="#fff"/><linearGradient id="D" gradientUnits="userSpaceOnUse" x1="146.175" y1="39.686" x2="175.225" y2="39.686"><stop offset=".115" stop-color="#99d13e"/><stop offset="1" stop-color="#6bc544"/></linearGradient><path d="M146.18 39.4c.12-.53.32-1.03.74-1.4.99-.88 2.32-.82 3.3.17l6.16 6.16c.08.08.14.18.24.32l.26-.33 14.28-14.29c.71-.71 1.53-.97 2.51-.67 1.45.45 2.03 2.37 1.08 3.56-.11.14-.23.28-.36.4L158.4 49.31c-.72.72-1.55 1.03-2.52.68-.35-.13-.7-.36-.96-.62l-7.99-7.98c-.4-.4-.64-.88-.76-1.43l.01-.56z" fill="url(#D)"/><defs ><path id="F" d="M98.84 44.32v-8.53h2.52c.75 0 1.42.17 2.01.5s1.04.81 1.36 1.43.48 1.32.48 2.12v.43c0 .81-.16 1.52-.48 2.13s-.78 1.09-1.38 1.42-1.28.5-2.05.5h-2.46zm1.48-7.34v6.15h.97c.78 0 1.37-.24 1.79-.73s.63-1.18.64-2.09v-.47c0-.93-.2-1.63-.6-2.12s-.99-.73-1.75-.73h-1.05z"/></defs></svg>