<svg xmlns="http://www.w3.org/2000/svg" viewBox="0 0 60 60" xmlns:v="https://vecta.io/nano"><circle cx="29.8" cy="29.4" r="28.8" fill="#f0f0f0" stroke="#dbdbdb"/><path d="M40.9 17.7V15c0-.8.6-1.5 1.4-1.6.7-.1 1.5.2 1.8.9.1.2.2.5.2.7v7.7c0 1-.7 1.7-1.7 1.7h-7.7c-.9 0-1.7-.7-1.7-1.7 0-.9.7-1.6 1.7-1.7h4.2.4l-.4-.4c-3.6-3.6-7.8-4.9-12.7-3.5-4.8 1.4-7.9 4.6-9 9.5-1.6 7.2 3.3 14.3 10.5 15.4 6.9 1.1 13.4-3.7 14.5-10.6.1-.6.1-1.3.2-2 0-1 .8-1.7 1.7-1.7s1.6.8 1.6 1.7c0 7.5-5.5 14.2-12.8 15.7-7.5 1.5-14.7-2.2-17.8-9.1-2.6-5.9-1.9-11.5 2-16.6 2.5-3.2 5.8-5.2 9.8-5.8 5.1-.8 9.5.5 13.4 3.8.1.1.2.2.3.2s.1 0 .1.1z" fill="#7f7f7f"/></svg>